<svg width="17" height="17" viewBox="0 0 17 17" fill="none" xmlns="http://www.w3.org/2000/svg">
<path d="M8.48486 0.630005C7.74846 0.630005 7.15153 1.22696 7.15153 1.96334V7.29667H1.8182C1.08182 7.29667 0.484863 7.89361 0.484863 8.63C0.484863 9.36641 1.08182 9.96334 1.8182 9.96334H7.15153V15.2967C7.15153 16.0331 7.74846 16.63 8.48486 16.63C9.22126 16.63 9.8182 16.0331 9.8182 15.2967V9.96334H15.1515C15.8879 9.96334 16.4849 9.36641 16.4849 8.63C16.4849 7.89361 15.8879 7.29667 15.1515 7.29667H9.8182V1.96334C9.8182 1.22696 9.22126 0.630005 8.48486 0.630005Z" fill="white"/>
</svg>
