<svg width="13" height="21" viewBox="0 0 13 21" fill="none" xmlns="http://www.w3.org/2000/svg">
<path d="M8.97995 19.717C9.14792 19.9075 9.35451 20.06 9.58597 20.1645C9.81744 20.269 10.0685 20.323 10.3224 20.323C10.5764 20.323 10.8275 20.269 11.0589 20.1645C11.2904 20.06 11.497 19.9075 11.6649 19.717C11.8552 19.549 12.0076 19.3425 12.112 19.1111C12.2164 18.8798 12.2704 18.6288 12.2704 18.375C12.2704 18.1212 12.2164 17.8703 12.112 17.6389C12.0076 17.4075 11.8552 17.201 11.6649 17.033L4.50695 10.413L11.6649 3.61301C11.8552 3.44503 12.0076 3.23851 12.112 3.00714C12.2164 2.77576 12.2704 2.52484 12.2704 2.27101C12.2704 2.01718 12.2164 1.76625 12.112 1.53488C12.0076 1.30351 11.8552 1.09698 11.6649 0.929007C11.497 0.738705 11.2904 0.586305 11.0591 0.481918C10.8277 0.377532 10.5768 0.323547 10.3229 0.323547C10.0691 0.323547 9.81819 0.377532 9.58682 0.481918C9.35544 0.586305 9.14892 0.738705 8.98095 0.929007L0.928946 8.98001C0.738645 9.14798 0.586244 9.35451 0.481857 9.58588C0.377471 9.81725 0.323486 10.0682 0.323486 10.322C0.323486 10.5758 0.377471 10.8268 0.481857 11.0581C0.586244 11.2895 0.738645 11.496 0.928946 11.664L8.98095 19.716L8.97995 19.717Z" fill="#7C8591"/>
</svg>
