<svg width="47" height="46" viewBox="0 0 47 46" fill="none" xmlns="http://www.w3.org/2000/svg">
<g clip-path="url(#clip0_1_14251)">
<path d="M33.419 19.619L27.1285 18.86C26.956 18.86 26.68 18.5725 26.588 18.3885L23.897 12.351C23.3565 11.2125 22.5515 11.2125 22.103 12.351L19.4005 18.3885C19.4005 18.5725 19.136 18.8485 18.86 18.8485L12.5695 19.6075C11.408 19.6075 11.132 20.562 12.0405 21.505L16.7095 25.8405C16.882 26.0245 16.974 26.4155 16.882 26.5995L15.64 33.2005C15.456 34.3275 16.1 34.9025 17.1695 34.1435L22.563 30.935H23.46L28.8535 34.2355C29.7505 34.9025 30.6475 34.2355 30.291 33.1085L29.118 26.496C29.118 26.496 29.118 26.036 29.3825 25.8405L33.879 21.4015C34.776 20.4585 34.776 19.5155 33.4305 19.5155V19.6075L33.419 19.619Z" fill="#1B86F9"/>
</g>
<defs>
<clipPath id="clip0_1_14251">
<rect width="27.6" height="27.6" fill="white" transform="translate(9.19995 9.2)"/>
</clipPath>
</defs>
</svg>
