<svg width="24" height="24" viewBox="0 0 24 24" fill="none" xmlns="http://www.w3.org/2000/svg">
<path d="M13.1666 8.49999H10.8333V6.16666H13.1666M13.1666 17.8333H10.8333V10.8333H13.1666M11.9999 0.333328C10.4678 0.333328 8.95074 0.635096 7.53528 1.2214C6.11981 1.80771 4.83369 2.66707 3.75034 3.75042C1.56242 5.93834 0.333252 8.9058 0.333252 12C0.333252 15.0942 1.56242 18.0616 3.75034 20.2496C4.83369 21.3329 6.11981 22.1923 7.53528 22.7786C8.95074 23.3649 10.4678 23.6667 11.9999 23.6667C15.0941 23.6667 18.0616 22.4375 20.2495 20.2496C22.4374 18.0616 23.6666 15.0942 23.6666 12C23.6666 10.4679 23.3648 8.95082 22.7785 7.53535C22.1922 6.11989 21.3328 4.83377 20.2495 3.75042C19.1661 2.66707 17.88 1.80771 16.4646 1.2214C15.0491 0.635096 13.532 0.333328 11.9999 0.333328Z" fill="white"/>
</svg>
