<svg width="59" height="58" viewBox="0 0 59 58" fill="none" xmlns="http://www.w3.org/2000/svg">
<g clip-path="url(#clip0_1_14259)">
<path d="M41.076 26.8552C41.076 22.5076 38.1821 19.349 34.1644 19.349C32.0135 19.349 30.8572 20.1308 29.0048 21.9288C27.1428 20.1308 25.9852 19.3333 23.8428 19.3333C19.8251 19.3333 16.9166 22.4992 16.9166 26.8625C16.9166 28.6991 17.5655 30.427 18.769 31.7876L28.4647 40.6773C28.7619 40.9432 29.2465 40.9432 29.5353 40.6773L38.292 32.7265L38.8237 32.242L39.0195 32.022L39.2225 31.8118C40.4267 30.4477 41.0888 28.6893 41.0833 26.8697" fill="#199A6A"/>
</g>
<defs>
<clipPath id="clip0_1_14259">
<rect width="29" height="29" fill="white" transform="translate(14.5 14.5)"/>
</clipPath>
</defs>
</svg>
