<svg width="59" height="58" viewBox="0 0 59 58" fill="none" xmlns="http://www.w3.org/2000/svg">
<g clip-path="url(#clip0_1_14242)">
<path d="M33.1567 29L38.918 34.6888C40.194 35.8694 40.194 37.6384 38.918 38.9168C37.9356 40.194 35.9721 40.194 34.794 38.9168L29 33.2533L23.3051 38.8177C22.127 40.0961 20.3592 40.0961 19.082 38.8177C17.806 37.8353 17.806 35.8694 19.082 34.6888L24.7346 29L19.1811 23.2858C17.806 22.1065 17.806 20.3375 19.1811 19.1569C19.4002 18.8387 19.6935 18.5784 20.0355 18.3987C20.3776 18.2189 20.7582 18.125 21.1446 18.125C21.531 18.125 21.9117 18.2189 22.2537 18.3987C22.5958 18.5784 22.889 18.8387 23.1082 19.1569L29 24.6754L34.6949 19.1569C35.873 17.7806 37.6408 17.7806 38.8189 19.1569C40.0961 20.1405 40.0961 22.1052 38.8189 23.2858L33.1567 29Z" fill="#F3485B"/>
</g>
<defs>
<clipPath id="clip0_1_14242">
<rect width="29" height="29" fill="white" transform="translate(14.5 14.5)"/>
</clipPath>
</defs>
</svg>
