<svg width="47" height="46" viewBox="0 0 47 46" fill="none" xmlns="http://www.w3.org/2000/svg">
<g clip-path="url(#clip0_1_14234)">
<path d="M23.1368 14.4888V13.003C23.1368 11.6046 22.2628 11.0802 21.0392 11.8668L20.34 12.2164L16.1459 15.0995L15.6215 15.4491C14.3979 16.3231 14.3979 17.4593 15.6215 18.0711L16.0585 18.5081C17.1936 19.3821 19.1175 20.6057 20.2526 21.3049L20.8644 21.6545C21.9132 22.5285 22.8746 21.9167 22.8746 20.6057V18.6829C23.6567 18.6765 24.4322 18.8258 25.1561 19.1221C25.8799 19.4184 26.5375 19.8559 27.0906 20.4089C27.6436 20.962 28.0811 21.6196 28.3774 22.3434C28.6737 23.0673 28.823 23.8428 28.8166 24.6249C28.8166 27.9461 26.1946 30.4807 22.8746 30.4807C19.3786 30.4807 16.7566 27.8587 16.7566 24.5375C16.7566 23.4887 15.8826 22.6159 14.7475 22.6159C13.5239 22.6159 12.6499 23.4899 12.6499 24.5375C12.6499 30.0437 17.1936 34.5 22.7872 34.5C28.2922 34.5 32.8359 30.13 32.8359 24.5375C32.9233 19.1199 28.3796 14.751 22.8746 14.751L23.1368 14.4888Z" fill="#C8720B"/>
</g>
<defs>
<clipPath id="clip0_1_14234">
<rect width="27.6" height="27.6" fill="white" transform="translate(9.19995 9.2)"/>
</clipPath>
</defs>
</svg>
